<svg width="110" height="110" viewBox="0 0 110 110" fill="none" xmlns="http://www.w3.org/2000/svg">
<rect width="110" height="110" rx="20.625" fill="#4F39F6"/>
<path d="M62.3853 87V81.6625C61.0872 83.5647 59.3752 85.0642 57.2491 86.1608C55.1455 87.2574 52.9187 87.8057 50.5688 87.8057C48.1742 87.8057 46.0258 87.2797 44.1235 86.2279C42.2213 85.1761 40.8449 83.699 39.9945 81.7968C39.1441 79.8945 38.7189 77.2649 38.7189 73.908V51.3494H48.1519V67.7312C48.1519 72.7442 48.3197 75.8214 48.6554 76.9628C49.0135 78.0817 49.6513 78.9769 50.5688 79.6483C51.4864 80.2973 52.6501 80.6218 54.0601 80.6218C55.6714 80.6218 57.1149 80.1854 58.3905 79.3126C59.6661 78.4174 60.5389 77.3208 61.0089 76.0228C61.4789 74.7024 61.7139 71.491 61.7139 66.3884V51.3494H71.1469V87H62.3853Z" fill="white"/>
</svg>
